<svg version="1.2" xmlns="http://www.w3.org/2000/svg" viewBox="0 0 710 744" width="710" height="744"><defs><linearGradient id="P" gradientUnits="userSpaceOnUse"/><radialGradient id="g1" cx="0" cy="0" r="1" href="#P" gradientTransform="matrix(522.422,0,0,522.422,355,371.841)"><stop stop-color="#fefefe"/><stop offset="1" stop-color="#bcbec0"/></radialGradient><linearGradient id="g2" x2="1" href="#P" gradientTransform="matrix(545.376,0,0,701.234,90.136,20.885)"><stop stop-color="#231f20"/><stop offset="1" stop-color="#bbbdbf"/></linearGradient><linearGradient id="g3" x2="1" href="#P" gradientTransform="matrix(529.796,0,0,683.943,98.025,29.618)"><stop stop-color="#231f20"/><stop offset=".3" stop-color="#fefefe"/><stop offset=".73" stop-color="#6c6e70"/><stop offset="1" stop-color="#231f20"/></linearGradient><linearGradient id="g4" x2="1" href="#P" gradientTransform="matrix(-0.636,-30.179,32.617,-0.688,343.141,704.717)"><stop stop-color="#231f20"/><stop offset="1" stop-color="#e6e7e8"/></linearGradient><linearGradient id="g5" x2="1" href="#P" gradientTransform="matrix(-0.522,-24.778,26.818,-0.565,346.139,701.538)"><stop stop-color="#e6e7e8"/><stop offset="1" stop-color="#231f20"/></linearGradient><radialGradient id="g6" cx="0" cy="0" r="1" href="#P" gradientTransform="matrix(-0.226,-9.911,9.911,-0.226,359.315,689.441)"><stop stop-color="#d1d2d3"/><stop offset="1" stop-color="#6d6e71"/></radialGradient><linearGradient id="g7" x2="1" href="#P" gradientTransform="matrix(-0.636,-30.175,32.617,-0.688,343.141,63.657)"><stop stop-color="#231f20"/><stop offset="1" stop-color="#e6e7e8"/></linearGradient><linearGradient id="g8" x2="1" href="#P" gradientTransform="matrix(-0.522,-24.766,26.818,-0.565,346.139,60.478)"><stop stop-color="#e6e7e8"/><stop offset="1" stop-color="#231f20"/></linearGradient><radialGradient id="g9" cx="0" cy="0" r="1" href="#P" gradientTransform="matrix(-0.226,-9.91,9.91,-0.226,359.315,48.39)"><stop stop-color="#d1d2d3"/><stop offset="1" stop-color="#6d6e71"/></radialGradient><linearGradient id="g10" x2="1" href="#P" gradientTransform="matrix(-0.636,-30.171,32.62,-0.688,574.481,122.728)"><stop stop-color="#231f20"/><stop offset="1" stop-color="#e6e7e8"/></linearGradient><linearGradient id="g11" x2="1" href="#P" gradientTransform="matrix(-0.522,-24.762,26.823,-0.565,577.471,119.556)"><stop stop-color="#e6e7e8"/><stop offset="1" stop-color="#231f20"/></linearGradient><radialGradient id="g12" cx="0" cy="0" r="1" href="#P" gradientTransform="matrix(-0.226,-9.912,9.912,-0.226,590.66,107.471)"><stop stop-color="#d1d2d3"/><stop offset="1" stop-color="#6d6e71"/></radialGradient><linearGradient id="g13" x2="1" href="#P" gradientTransform="matrix(-0.636,-30.171,32.617,-0.688,124.528,122.728)"><stop stop-color="#231f20"/><stop offset="1" stop-color="#e6e7e8"/></linearGradient><linearGradient id="g14" x2="1" href="#P" gradientTransform="matrix(-0.522,-24.763,26.815,-0.565,127.52,119.556)"><stop stop-color="#e6e7e8"/><stop offset="1" stop-color="#231f20"/></linearGradient><radialGradient id="g15" cx="0" cy="0" r="1" href="#P" gradientTransform="matrix(-0.226,-9.914,9.914,-0.226,140.699,107.471)"><stop stop-color="#d1d2d3"/><stop offset="1" stop-color="#6d6e71"/></radialGradient><linearGradient id="g16" x2="1" href="#P" gradientTransform="matrix(-0.636,-30.172,32.619,-0.688,198.839,568.909)"><stop stop-color="#231f20"/><stop offset="1" stop-color="#e6e7e8"/></linearGradient><linearGradient id="g17" x2="1" href="#P" gradientTransform="matrix(-0.522,-24.754,26.822,-0.565,201.832,565.714)"><stop stop-color="#e6e7e8"/><stop offset="1" stop-color="#231f20"/></linearGradient><radialGradient id="g18" cx="0" cy="0" r="1" href="#P" gradientTransform="matrix(-0.226,-9.91,9.91,-0.226,215.012,553.634)"><stop stop-color="#d1d2d3"/><stop offset="1" stop-color="#6d6e71"/></radialGradient><linearGradient id="g19" x2="1" href="#P" gradientTransform="matrix(-0.636,-30.167,32.621,-0.688,108.213,329.468)"><stop stop-color="#231f20"/><stop offset="1" stop-color="#e6e7e8"/></linearGradient><linearGradient id="g20" x2="1" href="#P" gradientTransform="matrix(-0.522,-24.774,26.809,-0.565,111.21,326.296)"><stop stop-color="#e6e7e8"/><stop offset="1" stop-color="#231f20"/></linearGradient><radialGradient id="g21" cx="0" cy="0" r="1" href="#P" gradientTransform="matrix(-0.226,-9.912,9.912,-0.226,124.393,314.203)"><stop stop-color="#d1d2d3"/><stop offset="1" stop-color="#6d6e71"/></radialGradient><linearGradient id="g22" x2="1" href="#P" gradientTransform="matrix(-0.636,-30.171,32.622,-0.688,501.221,568.909)"><stop stop-color="#231f20"/><stop offset="1" stop-color="#e6e7e8"/></linearGradient><linearGradient id="g23" x2="1" href="#P" gradientTransform="matrix(-0.522,-24.755,26.816,-0.565,504.218,565.714)"><stop stop-color="#e6e7e8"/><stop offset="1" stop-color="#231f20"/></linearGradient><radialGradient id="g24" cx="0" cy="0" r="1" href="#P" gradientTransform="matrix(-0.226,-9.913,9.913,-0.226,517.395,553.634)"><stop stop-color="#d1d2d3"/><stop offset="1" stop-color="#6d6e71"/></radialGradient><linearGradient id="g25" x2="1" href="#P" gradientTransform="matrix(-0.582,-27.598,29.829,-0.629,583.63,367.501)"><stop stop-color="#231f20"/><stop offset="1" stop-color="#e6e7e8"/></linearGradient><linearGradient id="g26" x2="1" href="#P" gradientTransform="matrix(-0.477,-22.64,24.503,-0.516,586.378,364.584)"><stop stop-color="#e6e7e8"/><stop offset="1" stop-color="#231f20"/></linearGradient><radialGradient id="g27" cx="0" cy="0" r="1" href="#P" gradientTransform="matrix(-0.207,-9.065,9.065,-0.207,598.42,353.538)"><stop stop-color="#d1d2d3"/><stop offset="1" stop-color="#6d6e71"/></radialGradient></defs><style>.a{display:none;fill:url(#g1)}.b{opacity:.01;fill:#231f20}.c{opacity:.02;fill:#231f20}.d{opacity:.03;fill:#231f20}.e{fill:url(#g2)}.f{fill:url(#g3)}.g{fill:#231f20}.h{fill:url(#g4)}.i{fill:url(#g5)}.j{fill:url(#g6)}.k{fill:#57585a}.l{fill:url(#g7)}.m{fill:url(#g8)}.n{fill:url(#g9)}.o{fill:url(#g10)}.p{fill:url(#g11)}.q{fill:url(#g12)}.r{fill:url(#g13)}.s{fill:url(#g14)}.t{fill:url(#g15)}.u{fill:url(#g16)}.v{fill:url(#g17)}.w{fill:url(#g18)}.x{fill:url(#g19)}.y{fill:url(#g20)}.z{fill:url(#g21)}.A{fill:url(#g22)}.B{fill:url(#g23)}.C{fill:url(#g24)}.D{fill:url(#g25)}.E{fill:url(#g26)}.F{fill:url(#g27)}.G{fill:#808284}</style><g style="display:none"></g><path class="a" d="m710 744h-710v-744.3h710z"/><g style="opacity:.3;display:none"><path class="b" d="m502.2 520.5c0 9.1-67.9 16.5-151.7 16.5-83.8 0-151.7-7.4-151.7-16.5 0-9 67.9-16.4 151.7-16.4 83.8 0 151.7 7.4 151.7 16.4z"/><path class="c" d="m496.1 520.5c0 8.8-65.2 15.8-145.6 15.8-80.4 0-145.5-7-145.5-15.8 0-8.7 65.1-15.8 145.5-15.8 80.4 0 145.6 7.1 145.6 15.8z"/><path class="d" d="m489.9 520.5c0 8.4-62.4 15.2-139.4 15.2-77 0-139.4-6.8-139.4-15.2 0-8.3 62.4-15.1 139.4-15.1 77 0 139.4 6.8 139.4 15.1z"/><path class="d" d="m485.5 520.5c0 8.2-60.4 14.7-135 14.7-74.6 0-135-6.5-135-14.7 0-8.1 60.4-14.6 135-14.6 74.6 0 135 6.5 135 14.6z"/><path class="d" d="m479 520.5c0 7.8-57.5 14-128.5 14-71 0-128.5-6.2-128.5-14 0-7.7 57.5-13.9 128.5-13.9 71 0 128.5 6.2 128.5 13.9z"/><path class="d" d="m474.6 520.5c0 7.5-55.5 13.5-124.1 13.5-68.5 0-124.1-6-124.1-13.5 0-7.4 55.6-13.4 124.1-13.4 68.6 0 124.1 6 124.1 13.4z"/><path class="d" d="m468.1 520.9c0 7.3-54.1 13.1-120.9 13.1-66.7 0-120.8-5.8-120.8-13.1 0-7.2 54.1-13.1 120.8-13.1 66.8 0 120.9 5.9 120.9 13.1z"/><path class="d" d="m459.4 520.9c0 6.7-50.2 12.2-112.2 12.2-61.9 0-112.1-5.5-112.1-12.2 0-6.7 50.2-12.2 112.1-12.2 62 0 112.2 5.5 112.2 12.2z"/><path class="d" d="m452.8 520.9c0 6.3-47.3 11.5-105.6 11.5-58.3 0-105.5-5.2-105.5-11.5 0-6.3 47.2-11.5 105.5-11.5 58.3 0 105.6 5.2 105.6 11.5z"/><path class="d" d="m448.4 520.9c0 6.1-45.3 11-101.2 11-55.9 0-101.2-4.9-101.2-11 0-6.1 45.3-11 101.2-11 55.9 0 101.2 4.9 101.2 11z"/><path class="d" d="m444.1 520.9c0 5.8-43.4 10.5-96.9 10.5-53.4 0-96.8-4.7-96.8-10.5 0-5.8 43.4-10.5 96.8-10.5 53.5 0 96.9 4.7 96.9 10.5z"/><path class="d" d="m439.3 520.9c0 5.5-41.2 10-92.1 10-50.8 0-92.1-4.5-92.1-10 0-5.5 41.3-10 92.1-10 50.9 0 92.1 4.5 92.1 10z"/><path class="d" d="m430.6 520.9c0 5-37.3 9.1-83.4 9.1-46 0-83.3-4.1-83.3-9.1 0-5 37.3-9.1 83.3-9.1 46.1 0 83.4 4.1 83.4 9.1z"/><path class="d" d="m441.9 520.5c0 5.5-40.9 10-91.4 10-50.5 0-91.4-4.5-91.4-10 0-5.4 40.9-9.9 91.4-9.9 50.5 0 91.4 4.5 91.4 9.9z"/><path class="d" d="m439.1 520.5c0 5.4-39.7 9.7-88.6 9.7-48.9 0-88.5-4.3-88.5-9.7 0-5.3 39.6-9.6 88.5-9.6 48.9 0 88.6 4.3 88.6 9.6z"/><path class="d" d="m434.8 520.5c0 5.1-37.8 9.2-84.3 9.2-46.5 0-84.2-4.1-84.2-9.2 0-5 37.7-9.1 84.2-9.1 46.5 0 84.3 4.1 84.3 9.1z"/><path class="d" d="m431.9 520.5c0 4.9-36.4 8.9-81.4 8.9-44.9 0-81.4-4-81.4-8.9 0-4.8 36.5-8.8 81.4-8.8 45 0 81.4 4 81.4 8.8z"/><path class="d" d="m427.6 520.8c0 4.7-35.5 8.6-79.2 8.6-43.8 0-79.3-3.9-79.3-8.6 0-4.8 35.5-8.6 79.3-8.6 43.7 0 79.2 3.8 79.2 8.6z"/><path class="d" d="m421.9 520.8c0 4.4-32.9 8-73.5 8-40.6 0-73.6-3.6-73.6-8 0-4.4 33-8 73.6-8 40.6 0 73.5 3.6 73.5 8z"/><path class="d" d="m417.6 520.8c0 4.1-31 7.5-69.2 7.5-38.3 0-69.3-3.4-69.3-7.5 0-4.2 31-7.5 69.3-7.5 38.2 0 69.2 3.3 69.2 7.5z"/><path class="d" d="m414.7 520.8c0 4-29.7 7.2-66.3 7.2-36.7 0-66.4-3.2-66.4-7.2 0-4 29.7-7.2 66.4-7.2 36.6 0 66.3 3.2 66.3 7.2z"/><path class="d" d="m411.9 520.8c0 3.8-28.5 6.9-63.5 6.9-35.1 0-63.5-3.1-63.5-6.9 0-3.8 28.4-6.9 63.5-6.9 35 0 63.5 3.1 63.5 6.9z"/><path class="d" d="m408.7 520.8c0 3.6-27 6.5-60.3 6.5-33.4 0-60.4-2.9-60.4-6.5 0-3.6 27-6.6 60.4-6.6 33.3 0 60.3 3 60.3 6.6z"/><path class="d" d="m403 520.8c0 3.3-24.5 5.9-54.6 5.9-30.2 0-54.7-2.6-54.7-5.9 0-3.3 24.5-6 54.7-6 30.1 0 54.6 2.7 54.6 6z"/><path class="d" d="m412.6 520.5c0 3.8-27.8 6.8-62.1 6.8-34.3 0-62-3-62-6.8 0-3.7 27.7-6.7 62-6.7 34.3 0 62.1 3 62.1 6.7z"/><path class="d" d="m410.6 520.5c0 3.7-26.9 6.6-60.1 6.6-33.2 0-60.1-2.9-60.1-6.6 0-3.6 26.9-6.5 60.1-6.5 33.2 0 60.1 2.9 60.1 6.5z"/><path class="d" d="m407.7 520.5c0 3.5-25.6 6.3-57.2 6.3-31.6 0-57.2-2.8-57.2-6.3 0-3.4 25.6-6.2 57.2-6.2 31.6 0 57.2 2.8 57.2 6.2z"/><path class="d" d="m405.8 520.5c0 3.4-24.8 6.1-55.3 6.1-30.5 0-55.2-2.7-55.2-6.1 0-3.3 24.7-6 55.2-6 30.5 0 55.3 2.7 55.3 6z"/><path class="d" d="m402.9 520.7c0 3.2-24.1 5.9-53.8 5.9-29.8 0-53.8-2.7-53.8-5.9 0-3.2 24-5.8 53.8-5.8 29.7 0 53.8 2.6 53.8 5.8z"/><path class="d" d="m399 520.7c0 3-22.4 5.4-49.9 5.4-27.6 0-50-2.4-50-5.4 0-3 22.4-5.4 50-5.4 27.5 0 49.9 2.4 49.9 5.4z"/><path class="d" d="m396 520.7c0 2.8-21 5.1-46.9 5.1-26 0-47.1-2.3-47.1-5.1 0-2.8 21.1-5.1 47.1-5.1 25.9 0 46.9 2.3 46.9 5.1z"/><path class="d" d="m394.1 520.7c0 2.7-20.2 4.9-45 4.9-24.9 0-45.1-2.2-45.1-4.9 0-2.7 20.2-4.9 45.1-4.9 24.8 0 45 2.2 45 4.9z"/><path class="d" d="m392.2 520.7c0 2.6-19.3 4.7-43.1 4.7-23.9 0-43.2-2.1-43.2-4.7 0-2.6 19.3-4.7 43.2-4.7 23.8 0 43.1 2.1 43.1 4.7z"/><path class="d" d="m390 520.7c0 2.5-18.3 4.5-40.9 4.5-22.7 0-41-2-41-4.5 0-2.5 18.3-4.4 41-4.4 22.6 0 40.9 1.9 40.9 4.4z"/><path class="d" d="m386.2 520.7c0 2.2-16.7 4-37.1 4-20.5 0-37.1-1.8-37.1-4 0-2.2 16.6-4 37.1-4 20.4 0 37.1 1.8 37.1 4z"/><path class="d" d="m391.2 520.5c0 2.5-18.2 4.5-40.7 4.5-22.5 0-40.7-2-40.7-4.5 0-2.4 18.2-4.4 40.7-4.4 22.5 0 40.7 2 40.7 4.4z"/><path class="d" d="m389.9 520.5c0 2.4-17.6 4.3-39.4 4.3-21.8 0-39.4-1.9-39.4-4.3 0-2.3 17.6-4.2 39.4-4.2 21.8 0 39.4 1.9 39.4 4.2z"/><path class="d" d="m388 520.5c0 2.3-16.8 4.1-37.5 4.1-20.7 0-37.5-1.8-37.5-4.1 0-2.2 16.8-4 37.5-4 20.7 0 37.5 1.8 37.5 4z"/><path class="d" d="m386.7 520.5c0 2.2-16.2 4-36.2 4-20 0-36.2-1.8-36.2-4 0-2.1 16.2-3.9 36.2-3.9 20 0 36.2 1.8 36.2 3.9z"/><path class="d" d="m384.8 520.7c0 2.1-15.8 3.8-35.3 3.8-19.4 0-35.2-1.7-35.2-3.8 0-2.2 15.8-3.9 35.2-3.9 19.5 0 35.3 1.7 35.3 3.9z"/><path class="d" d="m382.3 520.7c0 1.9-14.7 3.5-32.8 3.5-18 0-32.7-1.6-32.7-3.5 0-2 14.7-3.6 32.7-3.6 18.1 0 32.8 1.6 32.8 3.6z"/><path class="d" d="m380.4 520.7c0 1.8-13.8 3.3-30.9 3.3-17 0-30.8-1.5-30.8-3.3 0-1.9 13.8-3.4 30.8-3.4 17.1 0 30.9 1.5 30.9 3.4z"/><path class="d" d="m379.1 520.7c0 1.7-13.2 3.2-29.6 3.2-16.3 0-29.5-1.5-29.5-3.2 0-1.8 13.2-3.3 29.5-3.3 16.4 0 29.6 1.5 29.6 3.3z"/><path class="d" d="m377.8 520.7c0 1.6-12.6 3-28.3 3-15.6 0-28.2-1.4-28.2-3 0-1.7 12.6-3.1 28.2-3.1 15.7 0 28.3 1.4 28.3 3.1z"/><path class="d" d="m376.4 520.7c0 1.6-12 2.9-26.9 2.9-14.8 0-26.8-1.3-26.8-2.9 0-1.7 12-3 26.8-3 14.9 0 26.9 1.3 26.9 3z"/><path class="d" d="m373.9 520.7c0 1.4-10.9 2.6-24.4 2.6-13.4 0-24.3-1.2-24.3-2.6 0-1.5 10.9-2.7 24.3-2.7 13.5 0 24.4 1.2 24.4 2.7z"/></g><path class="e" d="m113.8 83c0 0 226.1-139.8 507 0 0 0 107.7 447.5-258.9 639.1 0 0-367.3-188.3-248.1-639.1z"/><path class="f" d="m120.6 88.9c0 0 223.2-133.3 491 0 0 0 112.4 443.7-254.5 624.7 0 0-350.2-194.9-236.5-624.7z"/><path class="g" d="m159.7 120.4c0 0 182.4-112.7 409 0 0 0 86.8 395.8-208.9 550.3 0 0-296.2-186.6-200.1-550.3z"/><path fill-rule="evenodd" class="h" d="m359.1 704.5c-9 0-16.3-6.8-16.3-15.1 0-8.4 7.3-15.1 16.3-15.1 9.1 0 16.3 6.7 16.3 15.1 0 8.3-7.2 15.1-16.3 15.1z"/><path fill-rule="evenodd" class="i" d="m359.3 701.7c-7.4 0-13.4-5.5-13.4-12.3 0-6.9 6-12.4 13.4-12.4 7.4 0 13.4 5.5 13.4 12.4 0 6.8-6 12.3-13.4 12.3z"/><path fill-rule="evenodd" class="j" d="m359.3 699.2c-6 0-10.8-4.4-10.8-9.8 0-5.5 4.8-9.9 10.8-9.9 5.9 0 10.7 4.4 10.7 9.9 0 5.4-4.8 9.8-10.7 9.8z"/><path fill-rule="evenodd" class="k" d="m357.9 682.1h1.9l0.2 6.4h-2zm2.2 8.1l-2 0.1 0.1 6.4 2-0.1z"/><path fill-rule="evenodd" class="l" d="m359.1 63.4c-9 0-16.3-6.7-16.3-15.1 0-8.3 7.3-15.1 16.3-15.1 9.1 0 16.3 6.8 16.3 15.1 0 8.4-7.2 15.1-16.3 15.1z"/><path fill-rule="evenodd" class="m" d="m359.3 60.7c-7.4 0-13.4-5.6-13.4-12.4 0-6.8 6-12.4 13.4-12.4 7.4 0 13.4 5.6 13.4 12.4 0 6.8-6 12.4-13.4 12.4z"/><path fill-rule="evenodd" class="n" d="m359.3 58.2c-6 0-10.8-4.4-10.8-9.9 0-5.5 4.8-9.9 10.8-9.9 5.9 0 10.7 4.4 10.7 9.9 0 5.5-4.8 9.9-10.7 9.9z"/><path fill-rule="evenodd" class="k" d="m366.9 47.3v1.8l-6.9 0.1h-1.9l-6.9 0.2-0.1-1.8 6.9-0.2h0.4zm-6.9 0.2h-1.5-0.4l-0.2-6.4h2zm-1.8 8.2l1.9-0.1-0.1-6.3h-1.9z"/><path fill-rule="evenodd" class="o" d="m590.5 122.5c-9 0-16.3-6.8-16.3-15.1 0-8.4 7.3-15.1 16.3-15.1 9 0 16.3 6.7 16.3 15.1 0 8.3-7.3 15.1-16.3 15.1z"/><path fill-rule="evenodd" class="p" d="m590.6 119.7c-7.4 0-13.4-5.5-13.4-12.3 0-6.9 6-12.4 13.4-12.4 7.4 0 13.4 5.5 13.4 12.4 0 6.8-6 12.3-13.4 12.3z"/><path fill-rule="evenodd" class="q" d="m590.6 117.3c-5.9 0-10.7-4.4-10.7-9.9 0-5.5 4.8-9.9 10.7-9.9 5.9 0 10.7 4.4 10.7 9.9 0 5.5-4.8 9.9-10.7 9.9z"/><path fill-rule="evenodd" class="k" d="m598.2 106.3l0.1 1.9-6.9 0.1h-2l-6.9 0.2-0.1-1.9 7.9-0.1h1zm-6.9 0.1h-1-0.9l-0.2-6.4h2zm-1.8 8.2h1.9l-0.1-6.4-2 0.1z"/><path fill-rule="evenodd" class="r" d="m140.5 122.5c-9 0-16.3-6.8-16.3-15.1 0-8.4 7.3-15.1 16.3-15.1 9 0 16.3 6.7 16.3 15.1 0 8.3-7.3 15.1-16.3 15.1z"/><path fill-rule="evenodd" class="s" d="m140.7 119.7c-7.4 0-13.4-5.5-13.4-12.3 0-6.9 6-12.4 13.4-12.4 7.4 0 13.3 5.5 13.3 12.4 0 6.8-5.9 12.3-13.3 12.3z"/><path fill-rule="evenodd" class="t" d="m140.6 117.3c-5.9 0-10.7-4.4-10.7-9.9 0-5.5 4.8-9.9 10.7-9.9 6 0 10.8 4.4 10.8 9.9 0 5.5-4.8 9.9-10.8 9.9z"/><path fill-rule="evenodd" class="k" d="m148.2 106.3l0.1 1.9-6.9 0.1h-2l-6.9 0.2v-1.9l7.9-0.1h1zm-6.9 0.1h-1-1l-0.1-6.4h1.9zm-1.8 8.2h2l-0.2-6.4-1.9 0.1z"/><path fill-rule="evenodd" class="u" d="m214.8 568.7c-9 0-16.3-6.8-16.3-15.1 0-8.4 7.3-15.1 16.3-15.1 9.1 0 16.3 6.7 16.3 15.1 0 8.3-7.2 15.1-16.3 15.1z"/><path fill-rule="evenodd" class="v" d="m215 565.9c-7.4 0-13.4-5.5-13.4-12.4 0-6.8 6-12.3 13.4-12.3 7.4 0 13.4 5.5 13.4 12.3 0 6.9-6 12.4-13.4 12.4z"/><path fill-rule="evenodd" class="w" d="m215 563.4c-6 0-10.8-4.4-10.8-9.9 0-5.4 4.8-9.8 10.8-9.8 5.9 0 10.7 4.4 10.7 9.8 0 5.5-4.8 9.9-10.7 9.9z"/><path fill-rule="evenodd" class="k" d="m222.6 552.5v1.8l-6.9 0.1-1.9 0.1-6.9 0.1-0.1-1.8zm-6.9 0.1l-2 0.1-0.1-6.4 2-0.1zm-1.8 8.2h1.9l-0.1-6.4-2 0.1z"/><path fill-rule="evenodd" class="x" d="m124.2 329.2c-9 0-16.3-6.7-16.3-15.1 0-8.3 7.3-15.1 16.3-15.1 9 0 16.3 6.8 16.3 15.1 0 8.4-7.3 15.1-16.3 15.1z"/><path fill-rule="evenodd" class="y" d="m124.3 326.5c-7.4 0-13.3-5.5-13.3-12.4 0-6.8 5.9-12.4 13.3-12.4 7.4 0 13.4 5.6 13.4 12.4 0 6.9-6 12.4-13.4 12.4z"/><path fill-rule="evenodd" class="z" d="m124.3 324c-5.9 0-10.7-4.4-10.7-9.9 0-5.5 4.8-9.9 10.7-9.9 6 0 10.8 4.4 10.8 9.9 0 5.5-4.8 9.9-10.8 9.9z"/><path fill-rule="evenodd" class="k" d="m131.9 313.1l0.1 1.8-6.9 0.1h-2v0.1l-6.9 0.1v-1.8zm-6.9 0.1h-2l-0.1-6.4h1.9zm-1.8 8.2h2l-0.1-6.4-2 0.1z"/><path fill-rule="evenodd" class="A" d="m517.2 568.7c-9 0-16.3-6.8-16.3-15.1 0-8.4 7.3-15.1 16.3-15.1 9 0 16.3 6.7 16.3 15.1 0 8.3-7.3 15.1-16.3 15.1z"/><path fill-rule="evenodd" class="B" d="m517.4 565.9c-7.4 0-13.4-5.5-13.4-12.4 0-6.8 6-12.3 13.4-12.3 7.4 0 13.3 5.5 13.3 12.3 0 6.9-5.9 12.4-13.3 12.4z"/><path fill-rule="evenodd" class="C" d="m517.3 563.4c-5.9 0-10.7-4.4-10.7-9.9 0-5.4 4.8-9.8 10.7-9.8 6 0 10.8 4.4 10.8 9.8 0 5.5-4.8 9.9-10.8 9.9z"/><path fill-rule="evenodd" class="k" d="m524.9 552.5l0.1 1.8-6.9 0.1-2 0.1-6.9 0.1v-1.8zm-6.9 0.1l-2 0.1-0.1-6.4 1.9-0.1zm-1.7 8.2h1.9l-0.1-6.4-2 0.1z"/><path fill-rule="evenodd" class="D" d="m598.3 367.3c-8.3 0-15-6.2-15-13.8 0-7.7 6.7-13.8 15-13.8 8.2 0 14.9 6.1 14.9 13.8 0 7.6-6.7 13.8-14.9 13.8z"/><path fill-rule="evenodd" class="E" d="m598.4 364.8c-6.8 0-12.3-5.1-12.3-11.3 0-6.3 5.5-11.3 12.3-11.3 6.7 0 12.2 5 12.2 11.3 0 6.2-5.5 11.3-12.2 11.3z"/><path fill-rule="evenodd" class="F" d="m598.4 362.5c-5.5 0-9.8-4-9.8-9 0-5 4.3-9.1 9.8-9.1 5.4 0 9.8 4.1 9.8 9.1 0 5-4.4 9-9.8 9z"/><path fill-rule="evenodd" class="k" d="m605.3 352.5l0.1 1.7-6.4 0.1h-1.7l-6.3 0.1-0.1-1.6 8.1-0.2-0.1-5.8h-1.8l0.1 5.9 1.8-0.1zm-7.9 7.7l1.8-0.1-0.2-5.8h-1.7z"/><g style="display:none"><path class="G" d="m249.7 642.9l2.1-1.3q2.3 4.2 5.3 4.2 1.3 0 2.5-0.6 1.1-0.6 1.7-1.6 0.6-1 0.6-2.2 0-1.2-0.9-2.5-1.2-1.7-4.4-4.1-3.2-2.4-4-3.5-1.3-1.8-1.3-3.9 0-1.6 0.8-3 0.8-1.4 2.2-2.2 1.5-0.8 3.2-0.8 1.8 0 3.4 0.9 1.5 0.9 3.3 3.3l-2.1 1.6q-1.4-1.9-2.4-2.5-1.1-0.6-2.3-0.6-1.5 0-2.5 0.9-1 0.9-1 2.3 0 0.8 0.4 1.6 0.3 0.8 1.2 1.7 0.6 0.5 3.3 2.6 3.4 2.4 4.6 4.4 1.2 1.9 1.2 3.8 0 2.8-2.1 4.8-2.1 2.1-5.1 2.1-2.3 0-4.2-1.3-1.9-1.2-3.5-4.1z"/><path class="G" d="m279.9 622.1h14.7v2.5h-12.1v8h12v2.5h-12v10h12v2.5h-14.6z"/><path class="G" d="m332.6 626.8l-2 1.6q-1.6-2.2-4-3.3-2.3-1.2-5.1-1.2-3.1 0-5.7 1.5-2.6 1.5-4 4-1.5 2.4-1.5 5.5 0 4.7 3.3 7.8 3.2 3.2 8 3.2 5.4 0 9-4.2l2 1.5q-1.9 2.4-4.7 3.7-2.9 1.4-6.4 1.4-6.7 0-10.6-4.5-3.2-3.8-3.2-9.1 0-5.6 3.9-9.4 3.9-3.9 9.9-3.9 3.5 0 6.4 1.4 2.9 1.5 4.7 4z"/><path class="G" d="m347.7 622.1h2.6v15.4q0 2.7 0.1 3.4 0.2 1.5 0.9 2.6 0.6 1 2.1 1.7 1.4 0.6 2.9 0.6 1.3 0 2.4-0.5 1.2-0.5 2-1.5 0.8-0.9 1.1-2.3 0.3-1 0.3-4v-15.4h2.5v15.4q0 3.4-0.6 5.5-0.7 2.1-2.7 3.7-2 1.6-4.9 1.6-3.1 0-5.3-1.5-2.2-1.5-2.9-3.9-0.5-1.5-0.5-5.4z"/><path fill-rule="evenodd" class="G" d="m380.9 622.1h5.1q4.3 0 5.8 0.3 2.3 0.5 3.7 2.3 1.4 1.7 1.4 4.2 0 2.1-1 3.6-1 1.6-2.8 2.4-1.8 0.8-5 0.9l9.2 11.8h-3.2l-9.2-11.8h-1.4v11.8h-2.6zm2.6 2.5v8.7l4.4 0.1q2.5 0 3.8-0.5 1.2-0.5 1.9-1.6 0.7-1.1 0.7-2.4 0-1.3-0.7-2.3-0.7-1.1-1.9-1.5-1.1-0.5-3.7-0.5z"/><path class="G" d="m411.9 622.1h2.5v25.5h-2.5z"/><path class="G" d="m427.6 624.6v-2.5h14v2.5h-5.7v23h-2.6v-23z"/><path class="G" d="m453.1 622.1h3l6.5 10.5 6.5-10.5h2.9l-8.1 13.3v12.2h-2.5v-12.2z"/></g><g style="display:none"><path class="G" d="m299.6 657.3h0.9l2.6 6.2 2.7-6.2h0.9l-3.5 8h-0.2z"/><path class="G" d="m311.1 657.3h4.6v0.8h-3.8v2.5h3.8v0.8h-3.8v3.1h3.8v0.8h-4.6z"/><path class="G" d="m327.6 658.8l-0.6 0.5q-0.5-0.7-1.3-1-0.7-0.4-1.6-0.4-0.9 0-1.7 0.5-0.8 0.4-1.3 1.2-0.4 0.8-0.4 1.7 0 1.5 1 2.5 1 1 2.5 1 1.7 0 2.8-1.3l0.6 0.4q-0.6 0.8-1.5 1.2-0.9 0.4-2 0.4-2.1 0-3.3-1.4-1-1.2-1-2.8 0-1.8 1.2-3 1.3-1.2 3.1-1.2 1.2 0 2.1 0.5 0.9 0.4 1.4 1.2z"/><path class="G" d="m331.5 658.1v-0.8h4.4v0.8h-1.8v7.2h-0.8v-7.2z"/><path fill-rule="evenodd" class="G" d="m344 657.1q1.8 0 3 1.2 1.2 1.2 1.2 3 0 1.8-1.2 3-1.2 1.2-3 1.2-1.7 0-3-1.2-1.2-1.2-1.2-2.9 0-1.2 0.6-2.2 0.5-1 1.5-1.5 0.9-0.6 2.1-0.6zm0 0.8q-0.9 0-1.7 0.5-0.8 0.4-1.2 1.2-0.5 0.8-0.5 1.8 0 1.4 1 2.4 1 0.9 2.4 0.9 0.9 0 1.7-0.4 0.8-0.5 1.3-1.2 0.4-0.8 0.4-1.8 0-0.9-0.4-1.7-0.5-0.8-1.3-1.2-0.8-0.5-1.7-0.5z"/><path fill-rule="evenodd" class="G" d="m353 657.3h1.6q1.3 0 1.8 0.1 0.7 0.2 1.1 0.7 0.5 0.6 0.5 1.3 0 0.7-0.3 1.2-0.3 0.5-0.9 0.7-0.6 0.3-1.6 0.3l2.9 3.7h-1l-2.9-3.7h-0.4v3.7h-0.8zm0.8 0.8v2.7h1.3q0.8 0 1.2-0.1 0.4-0.2 0.6-0.5 0.2-0.3 0.2-0.8 0-0.4-0.2-0.7-0.2-0.3-0.5-0.5-0.4-0.1-1.2-0.1z"/><path fill-rule="evenodd" class="G" d="m365.9 665.3v-8h1.6q1.8 0 2.6 0.3 1.2 0.4 1.8 1.4 0.7 1 0.7 2.4 0 1.2-0.5 2.1-0.5 1-1.4 1.4-0.8 0.4-2.3 0.4zm0.8-0.7h0.9q1.7 0 2.3-0.2 0.9-0.3 1.4-1.1 0.5-0.8 0.5-1.9 0-1.1-0.5-1.9-0.6-0.9-1.6-1.2-0.7-0.2-2.5-0.2h-0.5z"/><path class="G" d="m377.2 657.3h4.6v0.8h-3.8v2.5h3.8v0.8h-3.8v3.1h3.8v0.8h-4.6z"/><path class="G" d="m385.5 663.8l0.6-0.4q0.8 1.3 1.7 1.3 0.4 0 0.8-0.1 0.3-0.2 0.5-0.5 0.2-0.4 0.2-0.7 0-0.4-0.3-0.8-0.4-0.5-1.4-1.3-1-0.7-1.2-1.1-0.4-0.5-0.4-1.2 0-0.5 0.2-1 0.3-0.4 0.7-0.6 0.5-0.3 1-0.3 0.6 0 1.1 0.3 0.5 0.3 1 1l-0.6 0.5q-0.5-0.6-0.8-0.8-0.3-0.2-0.7-0.2-0.5 0-0.8 0.3-0.3 0.3-0.3 0.8 0 0.2 0.1 0.5 0.1 0.2 0.4 0.5 0.2 0.2 1 0.8 1.1 0.8 1.5 1.4 0.3 0.6 0.3 1.2 0 0.8-0.6 1.5-0.7 0.6-1.6 0.6-0.7 0-1.3-0.4-0.6-0.4-1.1-1.3z"/><path class="G" d="m394.8 657.3h0.8v8h-0.8z"/><path class="G" d="m408.3 658.7l-0.7 0.5q-0.6-0.6-1.4-0.9-0.8-0.4-1.6-0.4-0.9 0-1.8 0.5-0.8 0.4-1.3 1.2-0.5 0.8-0.5 1.7 0 0.9 0.5 1.7 0.5 0.8 1.4 1.3 0.8 0.5 1.8 0.5 1.3 0 2.1-0.7 0.9-0.7 1-1.8h-2.5v-0.8h3.4q0 1.8-1.1 2.9-1.1 1.1-2.9 1.1-2.2 0-3.5-1.5-1-1.2-1-2.7 0-1.1 0.6-2.1 0.5-1 1.5-1.5 1-0.6 2.3-0.6 1 0 1.9 0.4 0.9 0.4 1.8 1.2z"/><path class="G" d="m413.3 665.3v-8h0.2l5.3 6.2v-6.2h0.8v8h-0.2l-5.2-6v6z"/></g></svg>