<svg version="1.2" xmlns="http://www.w3.org/2000/svg" viewBox="0 0 800 800" width="800" height="800"><defs><linearGradient id="P" gradientUnits="userSpaceOnUse"/><linearGradient id="g1" x2="1" href="#P" gradientTransform="matrix(301.493,0,0,493.524,159.724,185.542)"><stop stop-color="#606060"/><stop offset=".23" stop-color="#b0b2b5"/><stop offset=".42" stop-color="#fff"/><stop offset=".62" stop-color="#a9aaaa"/><stop offset=".87" stop-color="#868789"/><stop offset="1" stop-color="#f2f3f3"/></linearGradient><linearGradient id="g2" x2="1" href="#P" gradientTransform="matrix(-728.351,-77.135,103.461,-976.938,567.408,749.054)"><stop stop-color="#606060"/><stop offset=".23" stop-color="#b0b2b5"/><stop offset=".42" stop-color="#fff"/><stop offset=".62" stop-color="#a9aaaa"/><stop offset=".87" stop-color="#868789"/><stop offset="1" stop-color="#f2f3f3"/></linearGradient><linearGradient id="g3" x2="1" href="#P" gradientTransform="matrix(441.076,627.511,-471.907,331.703,455.29,-237.04)"><stop stop-color="#606060"/><stop offset=".23" stop-color="#b0b2b5"/><stop offset=".42" stop-color="#fff"/><stop offset=".62" stop-color="#a9aaaa"/><stop offset=".87" stop-color="#868789"/><stop offset="1" stop-color="#f2f3f3"/></linearGradient><linearGradient id="g4" x2="1" href="#P" gradientTransform="matrix(492.393,436.762,-357.838,403.417,410.525,-126.952)"><stop stop-color="#606060"/><stop offset=".23" stop-color="#b0b2b5"/><stop offset=".42" stop-color="#fff"/><stop offset=".62" stop-color="#a9aaaa"/><stop offset=".87" stop-color="#868789"/><stop offset="1" stop-color="#f2f3f3"/></linearGradient><linearGradient id="g5" x2="1" href="#P" gradientTransform="matrix(662.801,-648.04,827.558,846.409,-238.761,522.106)"><stop stop-color="#606060"/><stop offset=".23" stop-color="#b0b2b5"/><stop offset=".42" stop-color="#fff"/><stop offset=".62" stop-color="#a9aaaa"/><stop offset=".87" stop-color="#868789"/><stop offset="1" stop-color="#f2f3f3"/></linearGradient><linearGradient id="g6" x2="1" href="#P" gradientTransform="matrix(-475.481,-515.358,397.626,-366.858,270.953,815.289)"><stop/><stop offset=".99" stop-color="#636466"/></linearGradient><linearGradient id="g7" x2="1" href="#P" gradientTransform="matrix(-458.275,-496.71,366.849,-338.463,359.807,911.709)"><stop/><stop offset=".99" stop-color="#636466"/></linearGradient><linearGradient id="g8" x2="1" href="#P" gradientTransform="matrix(-770.951,210.725,-607.245,-2221.65,1167.784,551.346)"><stop stop-color="#fff"/><stop offset="1"/></linearGradient><linearGradient id="g9" x2="1" href="#P" gradientTransform="matrix(14.3,18.738,-18.739,14.301,571.39,265.986)"><stop stop-color="#b3b3b3"/><stop offset=".17" stop-color="#6e6e6e"/><stop offset=".44" stop-color="#1e1e1e"/><stop offset=".72" stop-color="#d1d1d1"/><stop offset="1" stop-color="#1e1e1e"/></linearGradient><linearGradient id="g10" x2="1" href="#P" gradientTransform="matrix(14.299,18.737,-18.737,14.299,255.932,203.776)"><stop stop-color="#b3b3b3"/><stop offset=".17" stop-color="#6e6e6e"/><stop offset=".44" stop-color="#1e1e1e"/><stop offset=".72" stop-color="#d1d1d1"/><stop offset="1" stop-color="#1e1e1e"/></linearGradient><linearGradient id="g11" x2="1" href="#P" gradientTransform="matrix(14.301,18.74,-18.74,14.301,456.63,599.592)"><stop stop-color="#b3b3b3"/><stop offset=".17" stop-color="#6e6e6e"/><stop offset=".44" stop-color="#1e1e1e"/><stop offset=".72" stop-color="#d1d1d1"/><stop offset="1" stop-color="#1e1e1e"/></linearGradient></defs><style>.a{fill:url(#g1)}.b{fill:url(#g2)}.c{fill:url(#g3)}.d{fill:url(#g4)}.e{fill:url(#g5)}.f{fill:url(#g6)}.g{fill:url(#g7)}.h{mix-blend-mode:screen;fill:url(#g8)}.i{fill:url(#g9)}.j{fill:url(#g10)}.k{fill:url(#g11)}</style><path class="a" d="m461.2 679.1l-80.5-34.8c-46.7-26.4-84.5-62.4-114.8-102.2-31.2-41.1-53.5-85.2-69.2-126.4-16-41.6-25-79.6-30.1-108.4-5.1-28.9-6.4-48.5-6.9-54.1l31.1-67.7c0.7 7.1 2.3 32 8.9 68.8 6.5 36.8 18 85.2 38 138.4 19.7 52.5 47.5 108.5 85.8 160.4 36.9 49.8 82.5 94.2 137.7 126z"/><path class="b" d="m461.2 679.1l-80.5-34.8c-46.7-26.4-84.5-62.4-114.8-102.2-31.2-41.1-53.5-85.2-69.2-126.4-16-41.6-25-79.6-30.1-108.4-5.1-28.9-6.4-48.5-6.9-54.1l31.1-67.7c0.7 7.1 2.3 32 8.9 68.8 6.5 36.8 18 85.2 38 138.4 19.7 52.5 47.5 108.5 85.8 160.4 36.9 49.8 82.5 94.2 137.7 126z"/><path class="c" d="m280.7 151c13.9 13 28.2 24.9 42.8 35.5 14.4 10.4 29 19.6 43.8 27.4 14.4 7.7 29 14.1 43.5 19.1 14.3 4.9 28.5 8.4 42.5 10.5 13.2 2 25.8 2.7 37.9 2.2 11.8-0.5 23-2.1 33.7-4.8 10.5-2.6 20.4-6.2 29.7-10.7 9.2-4.4 17.8-9.7 25.7-15.8q6.1 4.6 12.3 9.6 6.1 4.9 12.2 10.3 6.2 5.3 12.3 11.1 6.2 5.7 12.3 11.8c0 5.1 0.1 23.6-2 50.2-2.1 27-6.5 62.6-15.4 101.9-9.3 40.4-23.6 85.6-46 130.3-23.7 47.3-57.1 95.6-104.8 139.5-55.2-31.8-100.8-76.2-137.7-126-38.3-51.9-66.1-107.9-85.8-160.4-20-53.2-31.5-101.6-38-138.4-6.6-36.8-8.2-61.7-8.9-68.8q12.4-6.2 24.3-11.4 11.8-5.2 23.1-9.4 11.1-4.2 21.8-7.7 10.6-3.3 20.7-6z"/><path class="d" d="m461 677.1c-50.7-29.4-96.5-71.4-136.2-125-34.3-46.3-63.1-100.2-85.6-160-16.8-44.6-29.5-91-37.9-138.1-5.7-31.9-7.7-55-8.5-64.9q-0.1-1.5-0.2-2.6c7.6-3.9 15.4-7.5 23.1-10.9 7.6-3.4 15.4-6.5 23-9.4 7.3-2.7 14.6-5.3 21.8-7.6 6.5-2.1 13.2-4 19.7-5.8 13.7 12.8 28 24.6 42.4 35 14.4 10.4 29.2 19.7 43.9 27.5 14.6 7.8 29.3 14.2 43.8 19.2 14.4 4.9 28.8 8.5 42.8 10.6 10.3 1.6 20.5 2.4 30.4 2.4q3.9 0 7.7-0.2c11.7-0.5 23.2-2.1 34.1-4.8 10.4-2.6 20.5-6.3 30-10.9 8.8-4.2 17.2-9.3 25-15.2 3.8 2.9 7.5 5.8 11.2 8.8 4.1 3.4 8.3 6.8 12.3 10.3 4.1 3.6 8.2 7.3 12.2 11 3.9 3.7 7.8 7.5 11.8 11.4 0 15.4-0.7 32-2 49.4-2.8 34.6-7.9 68.8-15.4 101.6-10.7 46.9-26.1 90.6-45.9 130-26.2 52.4-61.1 98.9-103.5 138.2z"/><path class="e" d="m458.6 654.9c-44.2-27.7-84.3-65.7-119.5-113.3-33.4-45-61.4-97.4-83.3-155.7-16.4-43.6-28.9-89-37.1-135-4.2-23.4-6.3-42-7.4-53.8q5.8-2.8 11.6-5.3c7.3-3.2 14.7-6.3 22.1-9.1 6.9-2.6 14-5 20.9-7.2q4.8-1.6 9.6-3c12 10.7 24.3 20.6 36.7 29.6 15.1 10.9 30.6 20.7 46 28.9 15.4 8.1 31 15 46.4 20.2 15.3 5.3 30.8 9.2 45.8 11.4 11.2 1.7 22.3 2.6 33.1 2.6q4.3 0 8.5-0.2c12.9-0.5 25.5-2.3 37.6-5.3 11.6-2.9 22.8-7 33.4-12.1q8.6-4.2 16.6-9.2 0.4 0.3 0.8 0.6c4 3.2 7.9 6.5 11.8 9.9 4 3.5 8 7.1 11.8 10.6q3 2.8 6 5.8c-0.1 12.8-0.8 26.5-1.9 40.6-2.6 33.8-7.7 67.1-15 99.1-10.3 45.4-25.3 87.8-44.4 126-23.3 46.5-53.6 88.1-90.1 123.9z"/><path class="f" d="m458.3 652.9c-43.5-27.6-83.2-65.3-117.9-112.3-33.3-44.9-61.2-97.1-83.1-155.3-16.4-43.5-28.8-88.8-37-134.7-3.1-17.7-5.6-35.4-7.3-52.6q5.3-2.4 10.5-4.7c7.3-3.2 14.7-6.3 22.1-9 6.8-2.6 13.9-5.1 20.8-7.3q4.3-1.4 8.7-2.7c11.8 10.5 23.9 20.3 36.1 29.1 15.2 11 30.7 20.8 46.2 29 15.5 8.2 31.2 15.1 46.6 20.4 15.5 5.3 31 9.2 46.2 11.4 11.2 1.8 22.4 2.6 33.3 2.6q4.3 0 8.5-0.2c13-0.5 25.8-2.3 38-5.4 11.7-2.9 23.1-7 33.7-12.2 5.4-2.5 10.7-5.5 15.8-8.6 3.9 3.1 7.8 6.4 11.6 9.7 4 3.5 7.9 7 11.7 10.6q2.8 2.5 5.6 5.2c-0.2 12.7-0.8 26.1-1.9 39.8-2.6 33.8-7.7 67-15 98.9-10.3 45.3-25.2 87.6-44.3 125.7-22.9 45.9-52.8 87.1-88.9 122.6z"/><path class="g" d="m587.5 276c-3.8-3.5-7.8-7.1-11.7-10.6-3.8-3.3-7.7-6.5-11.6-9.7-5.1 3.2-10.4 6.1-15.8 8.7-10.7 5.1-22 9.2-33.7 12.2-12.2 3-25 4.8-38 5.4q-4.2 0.1-8.5 0.1c-10.9 0-22.1-0.8-33.3-2.5-15.2-2.3-30.7-6.2-46.2-11.5-15.5-5.3-31.1-12.2-46.6-20.4-15.5-8.2-31-18-46.2-28.9-12.2-8.9-24.3-18.7-36.1-29.2q-4.4 1.3-8.7 2.7c-7 2.3-14 4.7-20.9 7.3-5.4 2.1-10.9 4.3-16.3 6.6 1.6 14.6 3.8 29.5 6.4 44.4 8.2 45.9 20.6 91.2 37 134.7 21.9 58.2 49.8 110.4 83.1 155.3 34.6 46.9 74.2 84.5 117.6 112.1 29.4-31.9 54.2-67.8 73.9-107.1 19.1-38 34-80.3 44.3-125.7 7.3-31.9 12.3-65.1 15-98.8 1.1-13.8 1.7-27.2 1.9-39.8q-2.8-2.7-5.6-5.3z"/><path class="h" d="m458.3 652.9c20.6-168.7-35.9-330.8-67.3-405-11.2-4.4-22.4-9.6-33.6-15.5-15.5-8.2-31-18-46.2-29-12.2-8.8-24.3-18.6-36.1-29.1q-4.4 1.3-8.7 2.7c-6.9 2.2-14 4.7-20.8 7.3-7.4 2.7-14.8 5.8-22.1 9q-5.2 2.3-10.5 4.7c1.7 17.2 4.2 34.9 7.3 52.6 8.2 45.9 20.6 91.2 37 134.7 21.9 58.2 49.8 110.4 83.1 155.3 34.7 47 74.4 84.7 117.9 112.3z"/><path class="i" d="m576.4 281.3c0 4.8-3.9 8.7-8.7 8.7-4.8 0-8.6-3.9-8.6-8.7 0-4.8 3.8-8.7 8.6-8.7 4.8 0 8.7 3.9 8.7 8.7z"/><path class="j" d="m261 219.1c0 4.8-3.9 8.7-8.7 8.7-4.8 0-8.7-3.9-8.7-8.7 0-4.8 3.9-8.7 8.7-8.7 4.8 0 8.7 3.9 8.7 8.7z"/><path class="k" d="m461.7 614.9c0 4.8-3.9 8.7-8.7 8.7-4.8 0-8.7-3.9-8.7-8.7 0-4.8 3.9-8.7 8.7-8.7 4.8 0 8.7 3.9 8.7 8.7z"/></svg>