<svg width="435" height="119" viewBox="0 0 435 119" fill="none" xmlns="http://www.w3.org/2000/svg">
<path fill-rule="evenodd" clip-rule="evenodd" d="M13.37 104.11H23.02V82.7C23.12 50.31 49.35 24.07 81.74 23.98H93.53V37.35H81.74C56.73 37.45 36.48 57.7 36.38 82.71V104.12H46.03C46.99 72.35 72.97 47.07 104.75 46.97H117.47V58.76C117.37 91.15 91.14 117.39 58.75 117.48H0V58.76C0.1 26.35 26.33 0.11 58.72 0H70.51V13.39H58.72C33.71 13.49 13.46 33.74 13.36 58.75V104.11H13.37ZM59.42 104.11C83.54 103.65 103.12 84.46 104.08 60.36C79.97 60.83 60.41 80.02 59.47 104.11H59.42Z" fill="#00B14C"/>
<path fill-rule="evenodd" clip-rule="evenodd" d="M151.05 106.84L146.82 111.1L151.45 117.64H148.48L145.2 112.79L143.82 114.16V117.65H141.48V106.85H143.82V111.34L148.07 106.85H151.06L151.05 106.84ZM157.29 106.59C158.87 106.59 160.14 107.11 161.12 108.16C162.1 109.21 162.58 110.57 162.58 112.26C162.58 113.95 162.09 115.31 161.12 116.35C160.14 117.39 158.86 117.91 157.27 117.91C155.68 117.91 154.38 117.39 153.4 116.35C152.42 115.31 151.93 113.95 151.93 112.26C151.93 110.57 152.42 109.18 153.39 108.14C154.37 107.1 155.66 106.59 157.28 106.59H157.29ZM157.26 108.53C156.37 108.53 155.66 108.86 155.13 109.53C154.6 110.2 154.33 111.09 154.33 112.21C154.33 113.33 154.59 114.28 155.12 114.94C155.65 115.6 156.37 115.93 157.29 115.94C158.19 115.94 158.9 115.61 159.41 114.94C159.93 114.27 160.18 113.36 160.18 112.21C160.18 111.06 159.92 110.18 159.39 109.52C158.86 108.86 158.15 108.53 157.25 108.53H157.26ZM166.47 108.69C166.47 109.56 166.29 110.25 165.93 110.75C165.57 111.26 164.95 111.58 164.07 111.72V110.66C164.76 110.47 165.12 109.98 165.15 109.2H164.07V106.83H166.47V108.68V108.69ZM168.44 106.84H173.1C174.31 106.84 175.28 107.13 175.99 107.71C176.7 108.29 177.06 109.16 177.06 110.31C177.06 111.46 176.71 112.3 176 112.88C175.29 113.46 174.37 113.75 173.22 113.75H170.79V117.63H168.44V106.83V106.84ZM170.79 108.79V111.9H172.9C174.13 111.9 174.75 111.38 174.75 110.35C174.75 109.32 174.14 108.79 172.91 108.79H170.79ZM190.78 106.84V108.86H187.53V117.64H185.15V108.86H181.9V106.84H190.77H190.78ZM196.27 106.83H193.83L189.72 117.65H192.15L193.03 115.24H197.05L197.9 117.65H200.39L196.28 106.83H196.27ZM196.47 113.5H193.6L195.04 109.48L196.47 113.5ZM201.39 106.84H206.76C207.83 106.84 208.71 107.09 209.38 107.6C210.06 108.11 210.4 108.87 210.4 109.91C210.4 110.54 210.25 111.09 209.94 111.56C209.64 112.03 209.22 112.37 208.68 112.57C209.61 112.76 210.14 113.6 210.27 115.09C210.27 115.14 210.28 115.3 210.3 115.56C210.32 115.82 210.34 116.03 210.36 116.19C210.38 116.35 210.41 116.54 210.44 116.76C210.47 116.98 210.52 117.17 210.58 117.32C210.64 117.47 210.71 117.58 210.79 117.65H208.33C208.25 117.49 208.19 117.28 208.15 117.04C208.11 116.79 208.07 116.47 208.04 116.08C208.01 115.69 207.99 115.48 207.99 115.44C207.91 114.68 207.72 114.16 207.42 113.86C207.12 113.57 206.59 113.42 205.83 113.42H203.72V117.65H201.37V106.85L201.39 106.84ZM203.74 108.71V111.7H205.98C206.64 111.7 207.15 111.6 207.52 111.39C207.89 111.18 208.07 110.78 208.07 110.17C208.07 109.6 207.89 109.22 207.53 109.02C207.17 108.82 206.69 108.72 206.08 108.72H203.73L203.74 108.71ZM212.25 117.64V106.84H215.63L218.15 114.26L220.61 106.84H223.92V117.64H221.69V109.96L219.04 117.64H217.2L214.52 110.04V117.64H212.26H212.25ZM230.89 106.59C232.47 106.59 233.74 107.11 234.72 108.16C235.7 109.21 236.18 110.57 236.18 112.26C236.18 113.95 235.69 115.31 234.72 116.35C233.74 117.39 232.46 117.91 230.87 117.91C229.28 117.91 227.98 117.39 227 116.35C226.02 115.31 225.53 113.95 225.53 112.26C225.53 110.57 226.02 109.18 226.99 108.14C227.97 107.1 229.26 106.59 230.88 106.59H230.89ZM230.86 108.53C229.97 108.53 229.26 108.86 228.73 109.53C228.2 110.2 227.93 111.09 227.93 112.21C227.93 113.33 228.19 114.28 228.72 114.94C229.25 115.6 229.97 115.93 230.89 115.94C231.79 115.94 232.5 115.61 233.01 114.94C233.53 114.27 233.78 113.36 233.78 112.21C233.78 111.06 233.52 110.18 232.99 109.52C232.46 108.86 231.75 108.53 230.85 108.53H230.86ZM247.9 117.52L246.79 118.72L245.2 117.28C244.55 117.69 243.68 117.9 242.59 117.9C241.02 117.9 239.76 117.38 238.79 116.35C237.82 115.32 237.34 113.96 237.34 112.27C237.34 110.58 237.84 109.24 238.83 108.18C239.83 107.12 241.11 106.59 242.69 106.59C244.27 106.59 245.5 107.11 246.48 108.16C247.46 109.21 247.95 110.55 247.95 112.2C247.95 113.04 247.82 113.81 247.57 114.52C247.32 115.23 246.96 115.8 246.49 116.23L247.89 117.5L247.9 117.52ZM244.86 114.73C245.35 114.15 245.59 113.32 245.59 112.23C245.59 111.14 245.33 110.2 244.8 109.55C244.27 108.89 243.56 108.56 242.65 108.56C241.74 108.56 241.05 108.89 240.52 109.56C239.99 110.23 239.72 111.13 239.72 112.26C239.72 113.39 239.98 114.31 240.51 114.99C241.04 115.67 241.74 116.01 242.63 116.01C242.99 116.01 243.34 115.94 243.66 115.8L242.58 114.86L243.69 113.68L244.86 114.74V114.73ZM257.25 115.61V117.64H249.6V106.84H251.97V115.61H257.25ZM260.99 106.84V117.64H258.61V106.84H260.99ZM275.29 110.06H273.05C272.96 108.99 272.28 108.45 271 108.45C270.45 108.45 270.03 108.56 269.72 108.78C269.41 109 269.26 109.3 269.26 109.68C269.26 109.81 269.28 109.93 269.32 110.03C269.36 110.13 269.44 110.22 269.55 110.31C269.66 110.4 269.77 110.47 269.88 110.52C269.99 110.58 270.16 110.64 270.37 110.7C270.58 110.76 270.78 110.82 270.96 110.87C271.14 110.92 271.39 110.99 271.71 111.07C272.03 111.15 272.32 111.23 272.56 111.3C273.62 111.6 274.41 111.98 274.93 112.44C275.45 112.9 275.71 113.55 275.71 114.4C275.71 115.02 275.58 115.56 275.33 116.02C275.08 116.48 274.74 116.84 274.31 117.11C273.88 117.38 273.41 117.58 272.9 117.7C272.39 117.83 271.85 117.89 271.27 117.89C269.8 117.89 268.66 117.55 267.83 116.88C267.01 116.21 266.59 115.26 266.58 114.04H268.93C268.97 115.4 269.78 116.07 271.37 116.07C271.99 116.07 272.47 115.94 272.83 115.68C273.19 115.42 273.37 115.07 273.37 114.63C273.37 114.26 273.21 113.98 272.88 113.81C272.55 113.64 271.86 113.4 270.81 113.1C270.64 113.06 270.51 113.02 270.42 112.99C270.06 112.89 269.8 112.82 269.66 112.77C269.52 112.72 269.29 112.65 268.98 112.53C268.67 112.42 268.45 112.32 268.31 112.23C268.17 112.14 267.99 112.01 267.79 111.85C267.58 111.69 267.43 111.52 267.34 111.34C267.25 111.16 267.17 110.95 267.09 110.69C267.01 110.43 266.98 110.15 266.98 109.85C266.98 108.87 267.36 108.09 268.12 107.5C268.88 106.91 269.88 106.62 271.14 106.62C272.4 106.62 273.34 106.91 274.11 107.48C274.88 108.05 275.27 108.91 275.29 110.07V110.06ZM282.51 106.83L286.62 117.65H284.13L283.28 115.24H279.26L278.38 117.65H275.95L280.06 106.83H282.5H282.51ZM282.71 113.5L281.28 109.48L279.84 113.5H282.71ZM285.67 106.84L289.2 117.64H291.88L295.48 106.84H293.02L290.56 114.42L288.13 106.84H285.66H285.67ZM296.41 117.64V106.84H300.78C302.46 106.84 303.75 107.31 304.66 108.24C305.57 109.17 306.02 110.51 306.02 112.24C306.02 113.97 305.57 115.31 304.66 116.24C303.75 117.17 302.46 117.64 300.78 117.64H296.41ZM298.76 115.67H300.49C302.58 115.67 303.63 114.53 303.63 112.24C303.63 111.14 303.37 110.29 302.85 109.7C302.33 109.11 301.54 108.81 300.49 108.81H298.76V115.67ZM312.52 106.59C314.1 106.59 315.37 107.11 316.35 108.16C317.33 109.21 317.81 110.57 317.81 112.26C317.81 113.95 317.32 115.31 316.35 116.35C315.37 117.39 314.09 117.91 312.5 117.91C310.91 117.91 309.61 117.39 308.63 116.35C307.65 115.31 307.16 113.95 307.16 112.26C307.16 110.57 307.65 109.18 308.62 108.14C309.6 107.1 310.89 106.59 312.51 106.59H312.52ZM312.49 108.53C311.6 108.53 310.89 108.86 310.36 109.53C309.83 110.2 309.56 111.09 309.56 112.21C309.56 113.33 309.82 114.28 310.35 114.94C310.88 115.6 311.6 115.93 312.52 115.94C313.42 115.94 314.13 115.61 314.64 114.94C315.16 114.27 315.41 113.36 315.41 112.21C315.41 111.06 315.15 110.18 314.62 109.52C314.09 108.86 313.38 108.53 312.48 108.53H312.49ZM323.76 112.55V114.48H319.19V112.55H323.76ZM333.6 110.06H331.36C331.27 108.99 330.59 108.45 329.31 108.45C328.76 108.45 328.34 108.56 328.03 108.78C327.72 109 327.57 109.3 327.57 109.68C327.57 109.81 327.59 109.93 327.63 110.03C327.67 110.13 327.75 110.22 327.86 110.31C327.97 110.4 328.08 110.47 328.19 110.52C328.3 110.58 328.47 110.64 328.68 110.7C328.89 110.76 329.09 110.82 329.27 110.87C329.45 110.92 329.7 110.99 330.02 111.07C330.34 111.15 330.63 111.23 330.87 111.3C331.93 111.6 332.72 111.98 333.24 112.44C333.76 112.9 334.02 113.55 334.02 114.4C334.02 115.02 333.89 115.56 333.64 116.02C333.39 116.48 333.05 116.84 332.62 117.11C332.19 117.38 331.72 117.58 331.21 117.7C330.7 117.83 330.16 117.89 329.58 117.89C328.11 117.89 326.97 117.55 326.14 116.88C325.32 116.21 324.9 115.26 324.89 114.04H327.24C327.28 115.4 328.09 116.07 329.68 116.07C330.3 116.07 330.78 115.94 331.14 115.68C331.5 115.42 331.68 115.07 331.68 114.63C331.68 114.26 331.52 113.98 331.19 113.81C330.86 113.64 330.17 113.4 329.12 113.1C328.95 113.06 328.82 113.02 328.73 112.99C328.37 112.89 328.11 112.82 327.97 112.77C327.83 112.72 327.6 112.65 327.3 112.53C326.99 112.42 326.77 112.32 326.63 112.23C326.49 112.14 326.31 112.01 326.11 111.85C325.9 111.69 325.75 111.52 325.66 111.34C325.57 111.16 325.49 110.95 325.41 110.69C325.33 110.43 325.3 110.15 325.3 109.85C325.3 108.87 325.68 108.09 326.44 107.5C327.2 106.91 328.2 106.62 329.46 106.62C330.72 106.62 331.66 106.91 332.43 107.48C333.2 108.05 333.59 108.91 333.61 110.07L333.6 110.06ZM340.34 106.59C341.92 106.59 343.19 107.11 344.17 108.16C345.15 109.21 345.63 110.57 345.63 112.26C345.63 113.95 345.14 115.31 344.17 116.35C343.19 117.39 341.91 117.91 340.32 117.91C338.73 117.91 337.43 117.39 336.45 116.35C335.47 115.31 334.98 113.95 334.98 112.26C334.98 110.57 335.47 109.18 336.44 108.14C337.42 107.1 338.71 106.59 340.33 106.59H340.34ZM340.31 108.53C339.42 108.53 338.71 108.86 338.18 109.53C337.65 110.2 337.38 111.09 337.38 112.21C337.38 113.33 337.64 114.28 338.17 114.94C338.7 115.6 339.42 115.93 340.34 115.94C341.24 115.94 341.95 115.61 342.46 114.94C342.98 114.27 343.23 113.36 343.23 112.21C343.23 111.06 342.97 110.18 342.44 109.52C341.91 108.86 341.2 108.53 340.3 108.53H340.31ZM355.28 106.84V108.86H352.03V117.64H349.65V108.86H346.4V106.84H355.27H355.28ZM358.9 106.84V117.64H356.52V106.84H358.9ZM371.08 117.52L369.97 118.72L368.38 117.28C367.73 117.69 366.86 117.9 365.77 117.9C364.2 117.9 362.94 117.38 361.97 116.35C361 115.32 360.52 113.96 360.52 112.27C360.52 110.58 361.02 109.24 362.01 108.18C363.01 107.12 364.29 106.59 365.87 106.59C367.45 106.59 368.68 107.11 369.66 108.16C370.64 109.21 371.13 110.55 371.13 112.2C371.13 113.04 371 113.81 370.75 114.52C370.5 115.23 370.14 115.8 369.67 116.23L371.07 117.5L371.08 117.52ZM368.05 114.73C368.54 114.15 368.78 113.32 368.78 112.23C368.78 111.14 368.52 110.2 367.99 109.55C367.46 108.89 366.75 108.56 365.84 108.56C364.93 108.56 364.24 108.89 363.71 109.56C363.18 110.23 362.91 111.13 362.91 112.26C362.91 113.39 363.17 114.31 363.7 114.99C364.23 115.67 364.93 116.01 365.82 116.01C366.18 116.01 366.53 115.94 366.85 115.8L365.77 114.86L366.88 113.68L368.05 114.74V114.73ZM377 106.84H382.11C383.12 106.84 383.95 107.07 384.59 107.51C385.23 107.96 385.55 108.64 385.55 109.55C385.55 110.06 385.42 110.5 385.16 110.89C384.9 111.28 384.54 111.58 384.08 111.78C385.39 112.15 386.05 113.03 386.05 114.42C386.05 115.44 385.71 116.23 385.02 116.79C384.33 117.35 383.46 117.63 382.4 117.63H377V106.83V106.84ZM379.31 108.68V111.21H381.46C382.65 111.21 383.25 110.79 383.25 109.95C383.25 109.45 383.09 109.12 382.76 108.94C382.44 108.76 382 108.67 381.46 108.67H379.31V108.68ZM379.31 112.82V115.76H381.69C382.31 115.76 382.79 115.66 383.15 115.46C383.51 115.26 383.69 114.87 383.69 114.29C383.69 113.71 383.5 113.31 383.12 113.11C382.74 112.91 382.22 112.81 381.57 112.81H379.31V112.82ZM392.58 106.59C394.16 106.59 395.43 107.11 396.41 108.16C397.39 109.21 397.87 110.57 397.87 112.26C397.87 113.95 397.38 115.31 396.41 116.35C395.43 117.39 394.15 117.91 392.56 117.91C390.97 117.91 389.67 117.39 388.69 116.35C387.71 115.31 387.22 113.95 387.22 112.26C387.22 110.57 387.71 109.18 388.68 108.14C389.66 107.1 390.95 106.59 392.57 106.59H392.58ZM392.55 108.53C391.66 108.53 390.95 108.86 390.42 109.53C389.89 110.2 389.62 111.09 389.62 112.21C389.62 113.33 389.88 114.28 390.41 114.94C390.94 115.6 391.66 115.93 392.58 115.94C393.48 115.94 394.19 115.61 394.7 114.94C395.22 114.27 395.47 113.36 395.47 112.21C395.47 111.06 395.21 110.18 394.68 109.52C394.15 108.86 393.44 108.53 392.54 108.53H392.55ZM407.701 106.84V108.65L401.84 115.61H407.891V117.64H398.74V115.71L404.55 108.85H399.15V106.83H407.69L407.701 106.84ZM414.21 106.59C415.79 106.59 417.06 107.11 418.04 108.16C419.02 109.21 419.5 110.57 419.5 112.26C419.5 113.95 419.01 115.31 418.04 116.35C417.06 117.39 415.78 117.91 414.19 117.91C412.6 117.91 411.3 117.39 410.32 116.35C409.34 115.31 408.85 113.95 408.85 112.26C408.85 110.57 409.34 109.18 410.31 108.14C411.29 107.1 412.581 106.59 414.201 106.59H414.21ZM414.18 108.53C413.29 108.53 412.58 108.86 412.05 109.53C411.52 110.2 411.25 111.09 411.25 112.21C411.25 113.33 411.51 114.28 412.04 114.94C412.57 115.6 413.29 115.93 414.21 115.94C415.11 115.94 415.82 115.61 416.33 114.94C416.85 114.27 417.1 113.36 417.1 112.21C417.1 111.06 416.84 110.18 416.31 109.52C415.78 108.86 415.07 108.53 414.17 108.53H414.18ZM421.22 106.84H426.59C427.66 106.84 428.54 107.09 429.21 107.6C429.89 108.11 430.23 108.87 430.23 109.91C430.23 110.54 430.08 111.09 429.77 111.56C429.47 112.03 429.05 112.37 428.51 112.57C429.44 112.76 429.97 113.6 430.1 115.09C430.1 115.14 430.1 115.3 430.13 115.56C430.15 115.82 430.17 116.03 430.19 116.19C430.21 116.35 430.24 116.54 430.27 116.76C430.3 116.98 430.35 117.17 430.41 117.32C430.47 117.47 430.54 117.58 430.62 117.65H428.16C428.08 117.49 428.02 117.28 427.98 117.04C427.94 116.79 427.9 116.47 427.87 116.08C427.84 115.69 427.82 115.48 427.82 115.44C427.74 114.68 427.55 114.16 427.25 113.86C426.95 113.57 426.42 113.42 425.66 113.42H423.55V117.65H421.201V106.85L421.22 106.84ZM423.57 108.71V111.7H425.81C426.47 111.7 426.98 111.6 427.35 111.39C427.72 111.18 427.9 110.78 427.9 110.17C427.9 109.6 427.72 109.22 427.36 109.02C427 108.82 426.52 108.72 425.91 108.72H423.56L423.57 108.71ZM434.46 106.84V117.64H432.08V106.84H434.46Z" fill="white"/>
<path fill-rule="evenodd" clip-rule="evenodd" d="M294.08 0.41H277.13V5.44H282.6V19.97H288.59V5.44H294.08V0.41ZM274.85 0.41H269.08L269.11 6.92C269.11 8.43 269.17 9.94 269.28 11.43C268.73 10.17 268.04 8.93 267.36 7.75L263.13 0.42H257.2V19.98H263L262.97 13.19C262.97 11.71 262.94 10.22 262.78 8.71C263.25 9.73 263.71 10.69 264.26 11.65L269.12 19.97H274.86V0.41H274.85ZM254.09 0.41H237.88V19.97H254.36V15H243.78V12.14H253.12V7.61H243.78V5.16H254.08V0.41H254.09ZM235.4 0.41H227.98L222.4 7.36C222.46 5.66 222.48 6.23 222.48 4.37L222.51 0.41H216.58V19.97H222.49V14.2L224.25 12.36L229.03 19.97H236.53L228.32 8.02L235.41 0.41H235.4ZM213.29 0.41H207.3V6.98H201.64V0.41H195.62V19.97H201.64V12.25H207.3V19.97H213.29V0.41ZM192.66 6.35C192.6 2.31 189.72 0 184.72 0C180 0 176.81 2.44 176.81 6.13C176.81 9.48 178.84 10.58 181.65 11.54C183 12.01 186.38 12.83 187.17 13.49C187.42 13.71 187.55 13.96 187.55 14.29C187.55 15.28 186.61 15.91 185.1 15.91C183.34 15.91 182.16 15.28 182.05 13.38H176.03C176.08 17.75 179.43 20.41 184.9 20.41C190.37 20.41 193.44 17.83 193.44 13.76C193.44 9.69 189.98 8.43 186.71 7.58C185.89 7.36 182.53 6.89 182.53 5.68C182.53 4.91 183.25 4.47 184.51 4.47C186.05 4.47 186.98 5.16 187.01 6.34H192.64L192.66 6.35ZM167.6 12.99H163.92C164.58 11.01 164.99 9.67 164.99 9.67C165.37 8.46 165.48 8.02 165.81 6.68C166.08 7.97 166.14 8.3 166.55 9.65C166.55 9.65 167.24 11.87 167.59 13L167.6 12.99ZM168.76 0.41H162.82L155.6 19.97H161.67L162.63 17.2H168.92L169.88 19.97H175.95L168.76 0.41ZM157.19 0.41V5.44H151.69V19.97H145.7V5.44H140.23V0.41H157.18H157.19Z" fill="white"/>
<path fill-rule="evenodd" clip-rule="evenodd" d="M431.2 32H408.24L399.15 45.61L389.91 32.01H366.95L387.76 62.66L365.67 95.73H388.63L399.34 79.71L410.26 95.73H433.22L410.72 62.66L431.2 32Z" fill="#65BC46"/>
<path fill-rule="evenodd" clip-rule="evenodd" d="M257.5 48.0202H263.32C273.35 48.0202 279.52 53.2102 279.52 64.0402C279.52 73.6202 274.78 79.6102 265.2 79.6102H257.5V48.0102V48.0202ZM298.94 63.6902C298.94 43.8202 286.32 32.0002 266.8 32.0002H238.34V95.7302H266.45C287.31 95.7302 298.94 84.9002 298.94 63.6802V63.6902ZM227.6 32.0002H208.8L208.89 53.2102C208.89 58.1302 209.07 63.0602 209.43 67.8902C207.64 63.7702 205.4 59.7402 203.16 55.8902L189.37 31.9902H170.04V95.7202H188.93L188.84 73.6102C188.84 68.7802 188.75 63.9402 188.21 59.0202C189.73 62.3302 191.25 65.4702 193.04 68.6002L208.88 95.7202H227.59V32.0002H227.6ZM159.75 32.0002H140.24V95.7302H159.75V32.0002Z" fill="#00B14C"/>
<path fill-rule="evenodd" clip-rule="evenodd" d="M358.259 32H305.449V95.73H359.159V79.53H324.699V70.22H355.129V55.45H324.699V47.48H358.259V32Z" fill="#65BC46"/>
</svg>
